<svg width="200" height="120" viewBox="0 0 200 120" fill="none" xmlns="http://www.w3.org/2000/svg">
<g id="DF_Logo 1">
<g id="Group" opacity="0.95">
<path id="Vector" d="M190.89 26.5312H2.14844V51.8829H190.89V26.5312Z" fill="#130E1F"/>
</g>
<g id="Group_2" opacity="0.95">
<path id="Vector_2" d="M104.068 2.99958L8.64844 98.9141L26.5103 116.831L121.93 20.9165L104.068 2.99958Z" fill="#130E1F"/>
</g>
<g id="Group_3" opacity="0.95">
<path id="Vector_3" d="M196.197 83.9532L1.63157 84.0947L1.61719 58.746L196.177 58.6016L196.197 83.9532Z" fill="#130E1F"/>
</g>
<path id="Vector_4" d="M55.6036 108.403C54.5345 107.34 54 106.001 54 104.41C54 102.819 54.5345 101.457 55.6249 100.373C56.7153 99.2889 58.0759 98.7586 59.7221 98.7586C61.3683 98.7586 62.9506 99.4599 63.9529 100.735V94H66V109.745H64.0623V107.853C63.06 109.212 61.4563 110 59.6522 110C58.0273 110 56.691 109.47 55.6006 108.406L55.6036 108.403ZM57.2528 107.108C58.0091 107.853 58.9446 108.212 60.0805 108.212C61.2164 108.212 62.1519 107.85 62.8869 107.108C63.6431 106.363 64.0228 105.47 64.0228 104.387C64.0228 103.303 63.6431 102.39 62.8869 101.645C62.1519 100.9 61.2164 100.541 60.0805 100.541C58.9446 100.541 58.0091 100.923 57.2528 101.668C56.4966 102.413 56.1169 103.306 56.1169 104.389C56.1169 105.473 56.4966 106.366 57.2528 107.111V107.108Z" fill="#130E1F"/>
<path id="Vector_5" d="M70.575 100.58C71.6176 99.5189 72.925 99 74.5 99C76.075 99 77.3824 99.5416 78.425 100.602C79.4676 101.663 80 102.953 80 104.49C80 106.027 79.4676 107.36 78.425 108.42C77.3824 109.481 76.075 110 74.5 110C72.925 110 71.6176 109.481 70.575 108.42C69.5324 107.36 69 106.05 69 104.49C69 102.93 69.5324 101.64 70.575 100.582V100.58ZM77.0758 101.847C76.3817 101.118 75.5231 100.767 74.5 100.767C73.4769 100.767 72.6183 101.121 71.9047 101.847C71.2106 102.576 70.8621 103.449 70.8621 104.487C70.8621 105.525 71.2106 106.421 71.9047 107.15C72.5988 107.879 73.4574 108.23 74.5 108.23C75.5426 108.23 76.4012 107.876 77.0953 107.15C77.7894 106.424 78.1379 105.548 78.1379 104.487C78.1379 103.427 77.7894 102.573 77.0758 101.847Z" fill="#130E1F"/>
<path id="Vector_6" d="M85.0782 110H83V99.2553H84.9858V100.767C85.7986 99.6384 87.1071 99 88.6188 99C89.952 99 91.0111 99.383 91.8023 100.169C92.5936 100.935 93 101.957 93 103.21V109.997H90.9218V103.657C90.9218 101.849 89.9058 100.784 88.0985 100.784C86.2913 100.784 85.0751 102.082 85.0751 103.849V109.997L85.0782 110Z" fill="#130E1F"/>
<path id="Vector_7" d="M97.4696 108.437C96.4899 107.397 96 106.087 96 104.53C96 102.973 96.4899 101.64 97.4891 100.58C98.4884 99.519 99.7353 99 101.244 99C102.878 99 104.306 99.7487 105.224 101.079V99.2496H107V109.75H105.224V107.899C104.306 109.229 102.836 110 101.183 110C99.6936 110 98.4689 109.481 97.4696 108.44V108.437ZM98.981 107.17C99.6741 107.899 100.531 108.25 101.572 108.25C102.613 108.25 103.471 107.896 104.144 107.17C104.837 106.441 105.185 105.568 105.185 104.507C105.185 103.447 104.837 102.553 104.144 101.824C103.471 101.096 102.613 100.744 101.572 100.744C100.531 100.744 99.6741 101.118 98.981 101.847C98.288 102.576 97.94 103.449 97.94 104.51C97.94 105.571 98.288 106.444 98.981 107.173V107.17Z" fill="#130E1F"/>
<path id="Vector_8" d="M118.091 105.149V99H120V109.745H118.176V108.213C117.449 109.341 116.266 110 114.94 110C113.758 110 112.805 109.617 112.078 108.851C111.351 108.065 111 107.043 111 105.787V99H112.909V105.34C112.909 107.107 113.843 108.213 115.398 108.213C116.954 108.213 118.094 106.916 118.094 105.149H118.091Z" fill="#130E1F"/>
<path id="Vector_9" d="M139.82 106.444H141.726C140.991 108.627 139.023 110 136.531 110C134.96 110 133.64 109.481 132.571 108.42C131.523 107.36 131 106.05 131 104.49C131 102.93 131.546 101.663 132.614 100.602C133.683 99.5416 135.003 99 136.551 99C138.1 99 139.423 99.5189 140.449 100.54C141.474 101.558 142 102.848 142 104.365V105.032H132.909C133.014 106.01 133.411 106.821 134.083 107.445C134.774 108.049 135.591 108.361 136.554 108.361C138 108.361 139.237 107.632 139.823 106.447L139.82 106.444ZM133.011 103.449H140.051C139.631 101.702 138.291 100.642 136.554 100.642C134.817 100.642 133.454 101.765 133.014 103.449H133.011Z" fill="#130E1F"/>
<path id="Vector_10" d="M152.785 102.281H150.757C150.736 101.115 149.979 100.534 148.534 100.534C147.259 100.534 146.396 101.076 146.396 101.887C146.396 102.635 146.785 103.01 148.425 103.364L149.741 103.656C152.093 104.175 153 105.071 153 106.651C153 108.73 151.295 110 148.705 110C145.79 110 144.085 108.71 144 106.382H146.073C146.093 107.734 147.024 108.46 148.643 108.46C150.112 108.46 150.995 107.856 150.995 106.838C150.995 106.07 150.542 105.633 149.182 105.321L147.583 104.966C145.272 104.467 144.409 103.594 144.409 102.034C144.409 100.205 146.114 99 148.554 99C151.125 99 152.676 100.185 152.785 102.284V102.281Z" fill="#130E1F"/>
<path id="Vector_11" d="M156.784 99.6002V96.4418L158.719 96V99.6002H161.495V101.249H158.719V106.479C158.719 107.868 159.204 108.37 160.443 108.37C160.968 108.37 161.432 108.208 162 107.868V109.517C161.389 109.86 160.801 110 160.044 110C157.856 110 156.787 108.872 156.787 106.6V101.249H155V99.6002H156.787H156.784Z" fill="#130E1F"/>
<path id="Vector_12" d="M165.5 95C166.399 95 167 95.5557 167 96.2965C167 97.0374 166.355 97.5931 165.5 97.5931C164.645 97.5931 164 97.0374 164 96.2965C164 95.5557 164.601 95 165.5 95ZM166.56 110H164.437V99.608H166.56V110Z" fill="#130E1F"/>
<path id="Vector_13" d="M175.656 110H173.341L169 99H171.181L174.534 107.668L177.862 99H180L175.66 110H175.656Z" fill="#130E1F"/>
<path id="Vector_14" d="M182.603 108.437C181.534 107.397 181 106.087 181 104.53C181 102.973 181.534 101.64 182.625 100.58C183.715 99.519 185.075 99 186.721 99C188.503 99 190.061 99.7487 191.063 101.079V99.2496H193V109.75H191.063V107.899C190.061 109.229 188.457 110 186.654 110C185.029 110 183.693 109.481 182.603 108.44V108.437ZM184.252 107.17C185.008 107.899 185.943 108.25 187.079 108.25C188.215 108.25 189.15 107.896 189.885 107.17C190.641 106.441 191.02 105.568 191.02 104.507C191.02 103.447 190.641 102.553 189.885 101.824C189.15 101.096 188.215 100.744 187.079 100.744C185.943 100.744 185.008 101.118 184.252 101.847C183.496 102.576 183.116 103.449 183.116 104.51C183.116 105.571 183.496 106.444 184.252 107.173V107.17Z" fill="#130E1F"/>
<path id="Vector_15" d="M197 94H199V110H197V94Z" fill="#130E1F"/>
<path id="Vector_16" d="M124.684 99H123V100.785H124.684V110H126.463V100.785H129V99H126.463H124.684Z" fill="#130E1F"/>
<path id="Vector_17" d="M127 109H125V110H127V109Z" fill="#130E1F"/>
<path id="Vector_18" d="M124.684 99H123V100.785H124.684V110H126.463V100.785H129V99H126.463H124.684Z" fill="#130E1F"/>
<path id="Vector_19" d="M126.766 100H125C125 97.2448 126.986 95 129.431 95C130.834 95 132.169 95.7626 133 97.0387L131.578 98.2196C131.068 97.4385 130.286 96.9926 129.431 96.9926C127.962 96.9926 126.768 98.3395 126.768 99.9969L126.766 100Z" fill="#130E1F"/>
</g>
</svg>
